<?xml version="1.0" encoding="UTF-8" standalone="no"?>
<svg xmlns="http://www.w3.org/2000/svg" viewBox="0 0 1400 700">
    <style type="text/css">text {font-family: Arial, sans serif; font-size: 8pt; text-anchor:middle; dominant-baseline:
        middle;}
    </style>
    <defs>
        <marker id="arrow" markerHeight="12" markerWidth="12" orient="auto-start-reverse" refX="20" refY="10"
                viewBox="0 0 20 20">
            <path d="M 0 0 L 20 10 L 0 20 Z" fill="gray"/>
        </marker>
    </defs>
    <path d="M 290 110 Q 282 182, 210 190" fill="none" marker-end="url(#arrow)" stroke="gray"/>
    <path d="M 290 110 Q 314 214, 210 190" fill="none" marker-end="url(#arrow)" stroke="gray"/>
    <path d="M 506 387 Q 481 265, 594 213" fill="none" marker-end="url(#arrow)" stroke="gray"/>
    <path d="M 310 110 Q 382 118, 390 190" fill="none" marker-end="url(#arrow)" stroke="black"/>
    <path d="M 314 104 Q 486 42, 586 196" fill="none" marker-end="url(#arrow)" stroke="black"/>
    <path d="M 312 108 Q 523 90, 588 292" fill="none" marker-end="url(#arrow)" stroke="black"/>
    <path d="M 294 113 Q 319 235, 206 287" fill="none" marker-end="url(#arrow)" stroke="gray"/>
    <path d="M 587 294 Q 465 319, 413 206" fill="none" marker-end="url(#arrow)" stroke="gray"/>
    <path d="M 290 110 Q 346 246, 210 190" fill="none" marker-end="url(#arrow)" stroke="gray"/>
    <path d="M 600 215 Q 628 250, 600 285" fill="none" marker-end="url(#arrow)" stroke="gray"/>
    <path d="M 200 215 Q 228 250, 200 285" fill="none" marker-end="url(#arrow)" stroke="gray"/>
    <path d="M 686 105 Q 526 388, 214 295" fill="none" marker-end="url(#arrow)" stroke="gray"/>
    <path d="M 585 300 Q 500 368, 415 300" fill="none" marker-end="url(#arrow)" stroke="gray"/>
    <circle cx="500" cy="400" fill="ivory" r="15" stroke="ivory" stroke-width="1"/>
    <text fill="black" x="500" y="400">10</text>
    <circle cx="100" cy="100" fill="slategray" r="15" stroke="slategray" stroke-width="1"/>
    <text fill="black" x="100" y="100">11</text>
    <path d="M 213 206 Q 335 181, 387 294" fill="none" marker-end="url(#arrow)" stroke="gray"/>
    <path d="M 190 190 Q 118 182, 110 110" fill="none" marker-end="url(#arrow)" stroke="gray"/>
    <path d="M 390 310 Q 382 382, 310 390" fill="none" marker-end="url(#arrow)" stroke="green"/>
    <path d="M 390 310 Q 414 414, 310 390" fill="none" marker-end="url(#arrow)" stroke="gray"/>
    <path d="M 310 390 Q 318 318, 390 310" fill="none" marker-end="url(#arrow)" stroke="gray"/>
    <path d="M 590 310 Q 582 382, 510 390" fill="none" marker-end="url(#arrow)" stroke="gray"/>
    <circle cx="300" cy="100" fill="green" r="15" stroke="green" stroke-width="1"/>
    <text fill="black" x="300" y="100">0</text>
    <circle cx="400" cy="200" fill="gray" r="15" stroke="gray" stroke-width="1"/>
    <text fill="black" x="400" y="200">1</text>
    <circle cx="600" cy="200" fill="gray" r="15" stroke="gray" stroke-width="1"/>
    <text fill="black" x="600" y="200">2</text>
    <circle cx="600" cy="300" fill="gray" r="15" stroke="gray" stroke-width="1"/>
    <text fill="black" x="600" y="300">3</text>
    <circle cx="200" cy="300" fill="lightgray" r="15" stroke="lightgray" stroke-width="1"/>
    <text fill="black" x="200" y="300">4</text>
    <circle cx="200" cy="200" fill="blue" r="15" stroke="blue" stroke-width="1"/>
    <text fill="black" x="200" y="200">5</text>
    <circle cx="500" cy="100" fill="blue" r="15" stroke="blue" stroke-width="1"/>
    <text fill="black" x="500" y="100">6</text>
    <circle cx="700" cy="100" fill="yellow" r="15" stroke="yellow" stroke-width="1"/>
    <text fill="black" x="700" y="100">7</text>
    <circle cx="400" cy="300" fill="green" r="15" stroke="green" stroke-width="1"/>
    <text fill="black" x="400" y="300">8</text>
    <circle cx="300" cy="400" fill="lime" r="15" stroke="lime" stroke-width="1"/>
    <text fill="black" x="300" y="400">9</text>
</svg>
