<?xml version="1.0" encoding="UTF-8" standalone="no"?>
<svg xmlns="http://www.w3.org/2000/svg" viewBox="0 0 1000 600">
    <style type="text/css">text {font-family: Arial, sans serif; font-size: 8pt; text-anchor:middle; dominant-baseline:
        middle;}
    </style>
    <defs>
        <marker id="arrow" markerHeight="12" markerWidth="12" orient="auto-start-reverse" refX="20" refY="10"
                viewBox="0 0 20 20">
            <path d="M 0 0 L 20 10 L 0 20 Z" fill="gray"/>
        </marker>
    </defs>
    <path d="M 690 390 Q 635 335, 510 210" fill="none" marker-end="url(#arrow)" stroke="gray"/>
    <path d="M 390 110 Q 315 185, 310 190" fill="none" marker-end="url(#arrow)" stroke="black"/>
    <path d="M 410 110 Q 415 115, 490 190" fill="none" marker-end="url(#arrow)" stroke="black"/>
    <path d="M 410 110 Q 465 165, 590 290" fill="none" marker-end="url(#arrow)" stroke="black"/>
    <path d="M 414 104 Q 534 103, 686 196" fill="none" marker-end="url(#arrow)" stroke="gray"/>
    <path d="M 586 296 Q 466 297, 314 204" fill="none" marker-end="url(#arrow)" stroke="gray"/>
    <path d="M 415 103 Q 641 101, 885 197" fill="none" marker-end="url(#arrow)" stroke="gray"/>
    <path d="M 510 210 Q 515 215, 590 290" fill="none" marker-end="url(#arrow)" stroke="gray"/>
    <path d="M 885 200 Q 800 250, 715 200" fill="none" marker-end="url(#arrow)" stroke="gray"/>
    <path d="M 790 110 Q 715 185, 710 190" fill="none" marker-end="url(#arrow)" stroke="gray"/>
    <path d="M 590 310 Q 515 385, 510 390" fill="none" marker-end="url(#arrow)" stroke="gray"/>
    <circle cx="700" cy="400" fill="ivory" r="15" stroke="ivory" stroke-width="1"/>
    <text fill="black" x="700" y="400">10</text>
    <path d="M 887 206 Q 678 344, 513 394" fill="none" marker-end="url(#arrow)" stroke="gray"/>
    <path d="M 510 410 Q 515 415, 590 490" fill="none" marker-end="url(#arrow)" stroke="gray"/>
    <path d="M 610 310 Q 615 315, 690 390" fill="none" marker-end="url(#arrow)" stroke="gray"/>
    <circle cx="400" cy="100" fill="green" r="15" stroke="green" stroke-width="1"/>
    <text fill="black" x="400" y="100">0</text>
    <circle cx="300" cy="200" fill="gray" r="15" stroke="gray" stroke-width="1"/>
    <text fill="black" x="300" y="200">1</text>
    <circle cx="500" cy="200" fill="gray" r="15" stroke="gray" stroke-width="1"/>
    <text fill="black" x="500" y="200">2</text>
    <circle cx="600" cy="300" fill="gray" r="15" stroke="gray" stroke-width="1"/>
    <text fill="black" x="600" y="300">3</text>
    <circle cx="700" cy="200" fill="lightgray" r="15" stroke="lightgray" stroke-width="1"/>
    <text fill="black" x="700" y="200">4</text>
    <circle cx="900" cy="200" fill="blue" r="15" stroke="blue" stroke-width="1"/>
    <text fill="black" x="900" y="200">5</text>
    <circle cx="600" cy="100" fill="blue" r="15" stroke="blue" stroke-width="1"/>
    <text fill="black" x="600" y="100">6</text>
    <circle cx="800" cy="100" fill="yellow" r="15" stroke="yellow" stroke-width="1"/>
    <text fill="black" x="800" y="100">7</text>
    <circle cx="500" cy="400" fill="green" r="15" stroke="green" stroke-width="1"/>
    <text fill="black" x="500" y="400">8</text>
    <circle cx="600" cy="500" fill="lime" r="15" stroke="lime" stroke-width="1"/>
    <text fill="black" x="600" y="500">9</text>
</svg>
