<?xml version="1.0" encoding="UTF-8" standalone="no"?>
<svg xmlns="http://www.w3.org/2000/svg" viewBox="0 0 1200 500">
    <style type="text/css">text {font-family: Arial, sans serif; font-size: 8pt; text-anchor:middle; dominant-baseline:
        middle;}
    </style>
    <defs>
        <marker id="arrow" markerHeight="12" markerWidth="12" orient="auto-start-reverse" refX="20" refY="10"
                viewBox="0 0 20 20">
            <path d="M 0 0 L 20 10 L 0 20 Z" fill="gray"/>
        </marker>
    </defs>
    <path d="M 986 204 Q 834 297, 714 296" fill="none" marker-end="url(#arrow)" stroke="gray"/>
    <path d="M 690 310 Q 615 385, 610 390" fill="none" marker-end="url(#arrow)" stroke="gray"/>
    <path d="M 590 210 Q 515 285, 510 290" fill="none" marker-end="url(#arrow)" stroke="gray"/>
    <circle cx="400" cy="100" fill="green" r="15" stroke="green" stroke-width="1"/>
    <text fill="black" x="400" y="100">0</text>
    <circle cx="200" cy="200" fill="gray" r="15" stroke="gray" stroke-width="1"/>
    <text fill="black" x="200" y="200">1</text>
    <circle cx="400" cy="200" fill="gray" r="15" stroke="gray" stroke-width="1"/>
    <text fill="black" x="400" y="200">2</text>
    <circle cx="600" cy="200" fill="gray" r="15" stroke="gray" stroke-width="1"/>
    <text fill="black" x="600" y="200">3</text>
    <path d="M 490 290 Q 485 285, 410 210" fill="none" marker-end="url(#arrow)" stroke="gray"/>
    <circle cx="800" cy="200" fill="lightgray" r="15" stroke="lightgray" stroke-width="1"/>
    <text fill="black" x="800" y="200">4</text>
    <path d="M 387 106 Q 278 194, 213 194" fill="none" marker-end="url(#arrow)" stroke="black"/>
    <circle cx="1000" cy="200" fill="blue" r="15" stroke="blue" stroke-width="1"/>
    <text fill="black" x="1000" y="200">5</text>
    <path d="M 400 115 Q 350 150, 400 185" fill="none" marker-end="url(#arrow)" stroke="black"/>
    <circle cx="600" cy="100" fill="blue" r="15" stroke="blue" stroke-width="1"/>
    <text fill="black" x="600" y="100">6</text>
    <path d="M 413 106 Q 478 106, 587 194" fill="none" marker-end="url(#arrow)" stroke="black"/>
    <circle cx="800" cy="100" fill="yellow" r="15" stroke="yellow" stroke-width="1"/>
    <text fill="black" x="800" y="100">7</text>
    <path d="M 415 103 Q 588 102, 785 197" fill="none" marker-end="url(#arrow)" stroke="gray"/>
    <path d="M 585 200 Q 400 250, 215 200" fill="none" marker-end="url(#arrow)" stroke="gray"/>
    <circle cx="700" cy="300" fill="green" r="15" stroke="green" stroke-width="1"/>
    <text fill="black" x="700" y="300">8</text>
    <path d="M 415 102 Q 692 101, 985 198" fill="none" marker-end="url(#arrow)" stroke="gray"/>
    <circle cx="600" cy="400" fill="lime" r="15" stroke="lime" stroke-width="1"/>
    <text fill="black" x="600" y="400">9</text>
    <path d="M 800 115 Q 750 150, 800 185" fill="none" marker-end="url(#arrow)" stroke="gray"/>
    <circle cx="500" cy="300" fill="ivory" r="15" stroke="ivory" stroke-width="1"/>
    <text fill="black" x="500" y="300">10</text>
</svg>
