<?xml version="1.0" encoding="UTF-8" standalone="no"?>
<svg xmlns="http://www.w3.org/2000/svg" viewBox="0 0 800 500">
    <style type="text/css">text {font-family: Arial, sans serif; font-size: 8pt; text-anchor:middle; dominant-baseline:
        middle;}
    </style>
    <defs>
        <marker id="arrow" markerHeight="12" markerWidth="12" orient="auto-start-reverse" refX="20" refY="10"
                viewBox="0 0 20 20">
            <path d="M 0 0 L 20 10 L 0 20 Z" fill="gray"/>
        </marker>
    </defs>
    <path d="M 400 115 Q 428 150, 400 185" fill="none" marker-end="url(#arrow)" stroke="gray"/>
    <path d="M 400 115 Q 456 150, 400 185" fill="none" marker-end="url(#arrow)" stroke="gray"/>
    <path d="M 706 387 Q 681 265, 794 213" fill="none" marker-end="url(#arrow)" stroke="gray"/>
    <path d="M 413 106 Q 535 81, 587 194" fill="none" marker-end="url(#arrow)" stroke="black"/>
    <path d="M 415 103 Q 637 2, 785 197" fill="none" marker-end="url(#arrow)" stroke="black"/>
    <path d="M 413 106 Q 675 51, 787 294" fill="none" marker-end="url(#arrow)" stroke="black"/>
    <path d="M 400 115 Q 468 200, 400 285" fill="none" marker-end="url(#arrow)" stroke="gray"/>
    <path d="M 787 294 Q 665 319, 613 206" fill="none" marker-end="url(#arrow)" stroke="gray"/>
    <path d="M 400 115 Q 484 150, 400 185" fill="none" marker-end="url(#arrow)" stroke="gray"/>
    <path d="M 800 215 Q 828 250, 800 285" fill="none" marker-end="url(#arrow)" stroke="gray"/>
    <path d="M 400 215 Q 428 250, 400 285" fill="none" marker-end="url(#arrow)" stroke="gray"/>
    <path d="M 787 106 Q 675 349, 413 294" fill="none" marker-end="url(#arrow)" stroke="gray"/>
    <path d="M 785 300 Q 700 368, 615 300" fill="none" marker-end="url(#arrow)" stroke="gray"/>
    <circle cx="700" cy="400" fill="ivory" r="15" stroke="ivory" stroke-width="1"/>
    <text fill="black" x="700" y="400">10</text>
    <path d="M 413 206 Q 535 181, 587 294" fill="none" marker-end="url(#arrow)" stroke="gray"/>
    <path d="M 590 310 Q 582 382, 510 390" fill="none" marker-end="url(#arrow)" stroke="green"/>
    <path d="M 590 310 Q 614 414, 510 390" fill="none" marker-end="url(#arrow)" stroke="gray"/>
    <path d="M 790 310 Q 782 382, 710 390" fill="none" marker-end="url(#arrow)" stroke="gray"/>
    <circle cx="400" cy="100" fill="green" r="15" stroke="green" stroke-width="1"/>
    <text fill="black" x="400" y="100">0</text>
    <circle cx="600" cy="200" fill="gray" r="15" stroke="gray" stroke-width="1"/>
    <text fill="black" x="600" y="200">1</text>
    <circle cx="800" cy="200" fill="gray" r="15" stroke="gray" stroke-width="1"/>
    <text fill="black" x="800" y="200">2</text>
    <circle cx="800" cy="300" fill="gray" r="15" stroke="gray" stroke-width="1"/>
    <text fill="black" x="800" y="300">3</text>
    <circle cx="400" cy="300" fill="lightgray" r="15" stroke="lightgray" stroke-width="1"/>
    <text fill="black" x="400" y="300">4</text>
    <circle cx="400" cy="200" fill="blue" r="15" stroke="blue" stroke-width="1"/>
    <text fill="black" x="400" y="200">5</text>
    <circle cx="600" cy="100" fill="blue" r="15" stroke="blue" stroke-width="1"/>
    <text fill="black" x="600" y="100">6</text>
    <circle cx="800" cy="100" fill="yellow" r="15" stroke="yellow" stroke-width="1"/>
    <text fill="black" x="800" y="100">7</text>
    <circle cx="600" cy="300" fill="green" r="15" stroke="green" stroke-width="1"/>
    <text fill="black" x="600" y="300">8</text>
    <circle cx="500" cy="400" fill="lime" r="15" stroke="lime" stroke-width="1"/>
    <text fill="black" x="500" y="400">9</text>
</svg>
