<?xml version="1.0" encoding="UTF-8" standalone="no"?>
<svg xmlns="http://www.w3.org/2000/svg" viewBox="0 0 900 750">
    <style type="text/css">text {font-family: Arial, sans serif; font-size: 8pt; text-anchor:middle; dominant-baseline:
        middle;}
    </style>
    <defs>
        <marker id="arrow" markerHeight="12" markerWidth="12" orient="auto-start-reverse" refX="20" refY="10"
                viewBox="0 0 20 20">
            <path d="M 0 0 L 20 10 L 0 20 Z" fill="gray"/>
        </marker>
    </defs>
    <circle cx="450" cy="150" fill="green" r="15" stroke="green" stroke-width="1"/>
    <text fill="black" x="450" y="150">0</text>
    <circle cx="300" cy="300" fill="gray" r="15" stroke="gray" stroke-width="1"/>
    <text fill="black" x="300" y="300">1</text>
    <circle cx="600" cy="300" fill="gray" r="15" stroke="gray" stroke-width="1"/>
    <text fill="black" x="600" y="300">2</text>
    <circle cx="300" cy="450" fill="gray" r="15" stroke="gray" stroke-width="1"/>
    <text fill="black" x="300" y="450">3</text>
    <circle cx="600" cy="450" fill="blue" r="15" stroke="blue" stroke-width="1"/>
    <text fill="black" x="600" y="450">4</text>
    <path d="M 440 160 Q 340 260, 310 290" fill="none" marker-end="url(#arrow)" stroke="black"/>
    <circle cx="450" cy="600" fill="blue" r="15" stroke="blue" stroke-width="1"/>
    <text fill="black" x="450" y="600">5</text>
    <path d="M 460 160 Q 490 190, 590 290" fill="none" marker-end="url(#arrow)" stroke="black"/>
    <path d="M 444 163 Q 331 322, 306 437" fill="none" marker-end="url(#arrow)" stroke="black"/>
    <path d="M 587 444 Q 472 419, 313 306" fill="none" marker-end="url(#arrow)" stroke="gray"/>
    <path d="M 587 306 Q 428 419, 313 444" fill="none" marker-end="url(#arrow)" stroke="gray"/>
    <path d="M 600 315 Q 550 375, 600 435" fill="none" marker-end="url(#arrow)" stroke="gray"/>
    <path d="M 585 450 Q 450 500, 315 450" fill="none" marker-end="url(#arrow)" stroke="black"/>
    <path d="M 310 460 Q 340 490, 440 590" fill="none" marker-end="url(#arrow)" stroke="black"/>
</svg>
